<!DOCTYPE svg PUBLIC "-//W3C//DTD SVG 1.1//EN" "http://www.w3.org/Graphics/SVG/1.1/DTD/svg11.dtd">
<!-- Uploaded to: SVG Repo, www.svgrepo.com, Transformed by: SVG Repo Mixer Tools -->
<svg width="800px" height="800px" viewBox="-10 -10 120.00 120.00" xmlns="http://www.w3.org/2000/svg" version="1.1" fill="#000000" transform="rotate(-45)matrix(1, 0, 0, 1, 0, 0)">
<g id="SVGRepo_bgCarrier" stroke-width="0">
<path transform="translate(-10, -10), scale(3.75)" d="M16,29.46046349685639C18.384377169229886,29.926009279811804,20.803346722734986,29.130980951636722,23.056083428906277,28.22149500131049C25.54999630660486,27.21464022001673,28.9986138459098,26.512217834363618,29.720114035856994,23.921311531914398C30.49939530814511,21.122913433225467,26.780076611888994,18.887128598580954,26.459452727343887,16C26.19184381981461,13.59025647369047,29.212719923606436,11.16989871121693,28.066753007586712,9.03325690282509C26.933066986435826,6.919512678171848,23.474444571689567,7.850017700376079,21.42230355832726,6.608294742915678C19.306500808620264,5.328050924064042,18.47196219052723,1.8028791450221608,16,1.731826770119369C13.550751729206608,1.661427268446848,12.613110547950416,5.250940204777535,10.394693723879758,6.29132473777503C7.8653492355672485,7.477526922914508,3.833091745537355,5.7510485217107705,2.3635541788929793,8.126994334394105C0.913403703487679,10.471595131274425,4.29154405395699,13.244926165292034,4.389816447626799,15.999999999999998C4.482872991407334,18.608847096769903,1.5479219340202561,21.330662111135783,2.9138749468702745,23.55527782207354C4.293388767535051,25.801978909180107,7.970493939909505,24.660852493376176,10.3735740694683,25.74525557670389C12.457618016043789,26.6856918333475,13.755965836744014,29.022319458659144,16,29.46046349685639" fill="#FF675D" strokewidth="0"/>
</g>
<g id="SVGRepo_tracerCarrier" stroke-linecap="round" stroke-linejoin="round"/>
<g id="SVGRepo_iconCarrier"> <g transform="scale(0.521)"> <circle style="fill:F2F0EF;stroke:none" cx="96" cy="96" r="74"/> <path style="fill:#FFF" d="m 90,48 12,0 0,96 -12,0 z"/> <g transform="rotate(60,96,96)"> <path style="fill:#FFF" d="m 90,48 12,0 0,96 -12,0 z"/> </g> <g transform="rotate(-60,96,96)"> <path style="fill:#FFF" d="m 90,48 12,0 0,96 -12,0 z"/> </g> </g> </g>
</svg>